<svg xmlns="http://www.w3.org/2000/svg" viewBox="0 0 133.74 65.11"><defs><style>.cls-1,.cls-4{fill:none;}.cls-1,.cls-2,.cls-3,.cls-4{stroke:#622a70;stroke-miterlimit:10;}.cls-1{stroke-width:6.99px;}.cls-2,.cls-3{fill:#622a70;}.cls-2{stroke-width:1.8px;}.cls-3{stroke-width:1.43px;}.cls-4{stroke-width:0.4px;}</style></defs><title>Middel 4</title><g id="Laag_2" data-name="Laag 2"><g id="Laag_1-2" data-name="Laag 1"><path class="cls-1" d="M3.38,3.83l53.9,53.9a13.25,13.25,0,0,0,18.73,0l54.1-54.1"/><path class="cls-2" d="M7.11,4.64C8.1,7,8.6,8.16,8.24,8.54,7.5,9.3,5,7.87,4.16,7.42,2.38,6.42.88,5.58.9,4.22A3.17,3.17,0,0,1,4.05,1.5a2.66,2.66,0,0,1,.43.08,2.46,2.46,0,0,1,.66.33A7.81,7.81,0,0,1,7.11,4.64Z"/><path class="cls-3" d="M133,3.63c0,1.83-1.9,2.71-2.92,2.92a2.71,2.71,0,0,1-2.46-.46,2.74,2.74,0,0,1-.46-2.46c.22-1,1.09-2.91,2.92-2.91A2.91,2.91,0,0,1,133,3.63Z"/><line class="cls-4" x1="127.49" y1="1.64" x2="124.18" y2="4.89"/><line class="cls-4" x1="132.39" y1="6.02" x2="129.08" y2="9.27"/></g></g></svg>