<svg xmlns="http://www.w3.org/2000/svg" viewBox="0 0 137.73 69.1"><defs><style>.cls-1,.cls-4{fill:none;}.cls-1,.cls-2,.cls-3,.cls-4{stroke:#622a70;stroke-miterlimit:10;}.cls-1{stroke-width:11px;}.cls-2,.cls-3{fill:#622a70;}.cls-2{stroke-width:5.8px;}.cls-3{stroke-width:5.4px;}.cls-4{stroke-width:0.4px;}</style></defs><title>Middel 23</title><g id="Laag_2" data-name="Laag 2"><g id="Laag_1-2" data-name="Laag 1"><path class="cls-1" d="M5.38,5.81l53.9,53.91a13.25,13.25,0,0,0,18.73,0l54.1-54.1"/><path class="cls-2" d="M9.11,6.63c1,2.34,1.49,3.52,1.13,3.89C9.5,11.29,7,9.85,6.16,9.41c-1.78-1-3.28-1.85-3.26-3.2A3.16,3.16,0,0,1,6.05,3.49a2.14,2.14,0,0,1,.43.07,2.33,2.33,0,0,1,.66.34A7.72,7.72,0,0,1,9.11,6.63Z"/><path class="cls-3" d="M135,5.62c0,1.82-1.9,2.7-2.92,2.92a2.75,2.75,0,0,1-2.46-.47,2.72,2.72,0,0,1-.46-2.45c.22-1,1.09-2.92,2.92-2.92A2.92,2.92,0,0,1,135,5.62Z"/><line class="cls-4" x1="134.39" y1="8" x2="131.08" y2="11.25"/></g></g></svg>