<svg id="Laag_1" data-name="Laag 1" xmlns="http://www.w3.org/2000/svg" xmlns:xlink="http://www.w3.org/1999/xlink" viewBox="0 0 394.43 394.39"><defs><style>.cls-1{fill:none;}.cls-2{clip-path:url(#clip-path);}.cls-3{fill:#62286f;}.cls-4{fill:#68bedb;}.cls-5{fill:#ef7c38;}</style><clipPath id="clip-path"><rect class="cls-1" x="-0.02" y="0.03" width="394.4" height="394.4"/></clipPath></defs><title>JJAB facebook clean</title><g class="cls-2"><polygon class="cls-3" points="-0.02 0.03 -0.02 394.43 394.38 394.43 394.38 0.03 -0.02 0.03 -0.02 0.03"/><path class="cls-4" d="M390.85-63.18s1.77-8.58-6.89-7.27L-25.55-8.65S-34.22-7.35-29.77.2L60.11,152.66s4.45,7.55,11.76,2.71L286,13.42s7.3-4.84,15.91-3.18l62.39,12s8.6,1.67,10.37-6.92l16.2-78.54Z"/><path class="cls-5" d="M-157,276.05s-7-5.25,1.58-3.57L97.89,322.1s8.6,1.69,13.25,9.12l166,265.72s4.65,7.44-2.37,2.19L-157,276.05Z"/></g></svg>