<?xml version="1.0" encoding="utf-8"?>
<!-- Generator: Adobe Illustrator 22.0.1, SVG Export Plug-In . SVG Version: 6.00 Build 0)  -->
<svg version="1.1" id="Laag_1" xmlns="http://www.w3.org/2000/svg" xmlns:xlink="http://www.w3.org/1999/xlink" x="0px" y="0px"
	 viewBox="0 0 1473.8 882.8" style="enable-background:new 0 0 1473.8 882.8;" xml:space="preserve">
<style type="text/css">
	.st0{clip-path:url(#SVGID_4_);fill:#EF7C38;}
</style>
<g>
	<defs>
		<rect id="SVGID_1_" x="-184.5" y="-78.6" width="1920" height="1080"/>
	</defs>
	<clipPath id="SVGID_2_">
		<use xlink:href="#SVGID_1_"  style="overflow:visible;"/>
	</clipPath>
</g>
<g>
	<defs>
		<rect id="SVGID_3_" x="-184.5" y="-78.6" width="1920" height="1080"/>
	</defs>
	<clipPath id="SVGID_4_">
		<use xlink:href="#SVGID_3_"  style="overflow:visible;"/>
	</clipPath>
	<path class="st0" d="M55.7,137.9c0,0-31.2-1.1-21.3,28.5l49.3,147.8c0,0,9.9,29.6,35.3,11.6l225.1-159c0,0,25.5-18-5.7-19.1
		L55.7,137.9z"/>
	<path class="st0" d="M1112.7,794.2c0,0-21.8,22.3,7,34.5l52.7,22.2c0,0,28.7,12.1,38.9-17.4l64.7-187.9c0,0,10.1-29.5-11.6-7.1
		L1112.7,794.2z"/>
</g>
</svg>
