<?xml version="1.0" encoding="utf-8"?>
<!-- Generator: Adobe Illustrator 22.0.0, SVG Export Plug-In . SVG Version: 6.00 Build 0)  -->
<svg version="1.1" xmlns="http://www.w3.org/2000/svg" xmlns:xlink="http://www.w3.org/1999/xlink" x="0px" y="0px"
	 viewBox="0 0 1920 1080" style="enable-background:new 0 0 1920 1080;" xml:space="preserve">
<style type="text/css">
	.st0{fill:#383838;stroke:#010202;stroke-miterlimit:10;}
	.st1{fill:#010202;}
	.st2{fill:#5F5F5E;stroke:#60605E;stroke-miterlimit:10;}
	.st3{fill:none;stroke:#000000;stroke-miterlimit:10;}
	.st4{fill:#FFFFFF;}
	.st5{fill:none;stroke:#9599CC;stroke-width:0.5;stroke-miterlimit:10;}
	.st6{opacity:0.53;fill:none;stroke:#000000;stroke-miterlimit:10;}
	.st7{fill:#FFFFFF;stroke:#FFFFFF;stroke-miterlimit:10;}
	.st8{fill:none;stroke:#9599CC;stroke-width:0.75;stroke-miterlimit:10;}
	.st9{fill:#FDFDFD;}
	.st10{fill:#CBCACC;}
	.st11{fill:none;}
	.st12{font-family:'MyriadPro-Regular';}
	.st13{font-size:12px;}
	.st14{display:none;fill:#888CAD;}
	.st15{opacity:0.51;fill:#D3D3D3;}
	.st16{fill:none;stroke:#FFFFFF;stroke-width:1.5;stroke-miterlimit:10;}
	.st17{font-size:18px;}
</style>
<g id="Smartphone">
	<path class="st0" d="M1100.5,647.5c0-173.1-0.1-459.4-0.1-459.4s0.1-27.4,0-38.9c-0.2-17.4-13.5-38.4-49.9-38.4
		c-22.3,0-228,1.2-228,1.2s-52.5-1.1-66.8,0c-12,0.9-34.1,10.5-35.4,38c-0.9,18.3-0.6,306.2-0.3,497.6h8.8V190.4h360.6v457.1H1100.5
		z"/>
	<path class="st1" d="M844,140.4c0,0-3.2,2.2-3.2,5c0,2.8,3.2,4.5,3.2,4.5c1.9,0,131.8,0,131.8,0s3.8-0.7,3.8-4.7
		c0-3.9-3.6-4.7-3.6-4.7C973.1,140.4,844,140.4,844,140.4z"/>
	<circle class="st1" cx="794.4" cy="146.1" r="7.3"/>
	<path class="st2" d="M1101.3,372.6c2.5,0,4.8,0.9,4.8,3c0,2,0,38.4,0,39.8c0,3.5-0.9,4.5-4.8,4.5V372.6z"/>
	<path class="st2" d="M1101.3,451c2.5,0,4.8,1.9,4.8,6.3c0,4.3,0,81.3,0,84.2c0,7.4-0.9,9.6-4.8,9.6V451z"/>
	<line class="st3" x1="1089.5" y1="647.5" x2="728.9" y2="647.5"/>
</g>
<g id="Balk_boven">
	<path class="st4" d="M1031.2,204.5l-5.8-6.4c0,0,1.6-2.4,5.8-2.4c4.4,0,5.8,2.5,5.8,2.5L1031.2,204.5z"/>
	<path class="st5" d="M1029.1,202.6c1.2-0.8,3.1-0.8,4.1,0"/>
	<path class="st5" d="M1028,201c1.7-1.5,5.2-1.5,6.5,0"/>
	<path class="st5" d="M1026.7,199.5c2.6-2.5,6.4-2.5,9.1,0"/>
	<line class="st6" x1="729.6" y1="208.2" x2="1088.9" y2="208.2"/>
	<polygon class="st7" points="1038.8,204.1 1046.1,196.6 1046.1,204.1 	"/>
	<line class="st8" x1="1044.5" y1="196.9" x2="1044.5" y2="204.7"/>
	<line class="st8" x1="1042.6" y1="198.9" x2="1042.6" y2="204.7"/>
	<line class="st8" x1="1040.7" y1="201.2" x2="1040.7" y2="204.6"/>
	<rect x="1049" y="196.2" class="st9" width="6.2" height="8.5"/>
	<path class="st10" d="M1053.1,197.3h-2.1c-0.5,0-0.9-0.4-0.9-0.9v-0.1c0-0.5,0.4-0.9,0.9-0.9h2.1c0.5,0,0.9,0.4,0.9,0.9v0.1
		C1054.1,196.9,1053.6,197.3,1053.1,197.3z"/>
	<rect x="1049" y="196.2" class="st10" width="6.2" height="1.7"/>
	<rect x="1058" y="196.1" class="st11" width="29.3" height="9.7"/>
	<text transform="matrix(1 0 0 1 1057.9987 204.6024)" class="st4 st12 st13">12:51</text>
	<path class="st14" d="M1072.9,264H745.6c-3.4,0-6.3-2.8-6.3-6.3v-20.4c0-3.4,2.8-6.3,6.3-6.3h327.3c3.4,0,6.3,2.8,6.3,6.3v20.4
		C1079.1,261.2,1076.3,264,1072.9,264z"/>
	<path class="st15" d="M1070.7,260.2h-323c-3.4,0-6.3-2.8-6.3-6.3v-20.4c0-3.4,2.8-6.3,6.3-6.3h323c3.4,0,6.3,2.8,6.3,6.3v20.4
		C1077,257.3,1074.2,260.2,1070.7,260.2z"/>
	<path class="st16" d="M1056.6,243.7c0,3.4,3.1,4.7,6.1,4.7c2.8,0,6.1-1.1,6.1-4.7"/>
	<line class="st16" x1="1062.7" y1="254.6" x2="1062.7" y2="248.9"/>
	<path class="st4" d="M1062.7,246.1L1062.7,246.1c-2.1,0-3.8-1.7-3.8-3.8v-4.5c0-2.1,1.7-3.8,3.8-3.8l0,0c2.1,0,3.8,1.7,3.8,3.8v4.5
		C1066.5,244.4,1064.8,246.1,1062.7,246.1z"/>
	<rect x="751.8" y="235.5" class="st11" width="57.3" height="16.5"/>
	<text transform="matrix(1 0 0 1 751.7826 248.2473)" class="st4 st12 st17">Google</text>
</g>
</svg>
