<?xml version="1.0" encoding="utf-8"?>
<!-- Generator: Adobe Illustrator 22.0.0, SVG Export Plug-In . SVG Version: 6.00 Build 0)  -->
<svg version="1.1" id="Layer_1" xmlns="http://www.w3.org/2000/svg" xmlns:xlink="http://www.w3.org/1999/xlink" x="0px" y="0px"
	 viewBox="0 0 392.8 537.8" style="enable-background:new 0 0 392.8 537.8;" xml:space="preserve">
<style type="text/css">
	.st0{fill:#383838;stroke:#010202;stroke-miterlimit:10;}
	.st1{fill:#010202;}
	.st2{fill:#5F5F5E;stroke:#60605E;stroke-miterlimit:10;}
	.st3{fill:none;stroke:#000000;stroke-miterlimit:10;}
	.st4{fill:#FFFFFF;}
	.st5{fill:none;stroke:#9599CC;stroke-width:0.5;stroke-miterlimit:10;}
	.st6{opacity:0.53;fill:none;stroke:#000000;stroke-miterlimit:10;enable-background:new    ;}
	.st7{fill:#FFFFFF;stroke:#FFFFFF;stroke-miterlimit:10;}
	.st8{fill:none;stroke:#9599CC;stroke-width:0.75;stroke-miterlimit:10;}
	.st9{fill:#FDFDFD;}
	.st10{fill:#CBCACC;}
	.st11{fill:none;}
	.st12{font-family:'MyriadPro-Regular';}
	.st13{font-size:12px;}
	.st14{opacity:0.51;fill:#D3D3D3;enable-background:new    ;}
	.st15{fill:none;stroke:#FFFFFF;stroke-width:1.5;stroke-miterlimit:10;}
	.st16{font-size:18px;}
	.st17{fill:#5F5F5E;fill-opacity:0;}
</style>
<title>Asset 4</title>
<g id="Layer_2_1_">
	<g id="Layer_1-2">
		<g id="Layer_2-2">
			<g id="Layer_1-2-2">
				<g id="Smartphone">
					<path class="st0" d="M386.7,545.3c0-173.1-0.1-467.5-0.1-467.5s0.1-27.4,0-38.9c-0.2-17.4-13.5-38.4-49.9-38.4
						c-22.3,0-228,1.2-228,1.2s-52.5-1.1-66.8,0c-12,0.9-34.1,10.5-35.4,38C5.6,58,5.9,353.9,6.2,545.3H15V80.1h360.6v465.2H386.7z"
						/>
					<path class="st1" d="M130.2,30.1c0,0-3.2,2.2-3.2,5s3.2,4.5,3.2,4.5H262c2.6-0.6,4.3-3.2,3.7-5.8c-0.4-1.8-1.7-3.2-3.5-3.6
						C259.3,30.1,130.2,30.1,130.2,30.1z"/>
					<circle class="st1" cx="80.6" cy="35.8" r="7.3"/>
					<path class="st2" d="M387.5,262.3c2.5,0,4.8,0.9,4.8,3v39.8c0,3.5-0.9,4.5-4.8,4.5V262.3z"/>
					<path class="st2" d="M387.5,340.7c2.5,0,4.8,1.9,4.8,6.3v84.2c0,7.4-0.9,9.6-4.8,9.6V340.7z"/>
					<path class="st3" d="M15.1,543.2"/>
					<path class="st3" d="M375.7,537.2"/>
				</g>
				<g id="Balk_boven">
					<path class="st4" d="M317.4,94.2l-5.8-6.4c0,0,1.6-2.4,5.8-2.4c4.4,0,5.8,2.5,5.8,2.5L317.4,94.2z"/>
					<path class="st5" d="M315.3,92.3c1.2-0.8,2.9-0.8,4.1,0"/>
					<path class="st5" d="M314.2,90.7c1.7-1.5,5.2-1.5,6.5,0"/>
					<path class="st5" d="M312.9,89.2c2.5-2.5,6.6-2.5,9.1,0"/>
					<line class="st6" x1="15.8" y1="97.9" x2="375.1" y2="97.9"/>
					<polygon class="st7" points="325,93.8 332.3,86.3 332.3,93.8 					"/>
					<line class="st8" x1="330.7" y1="86.6" x2="330.7" y2="94.4"/>
					<line class="st8" x1="328.8" y1="88.6" x2="328.8" y2="94.4"/>
					<line class="st8" x1="326.9" y1="90.9" x2="326.9" y2="94.3"/>
					<rect x="335.2" y="85.9" class="st9" width="6.2" height="8.5"/>
					<path class="st10" d="M339.3,87h-2.1c-0.5,0-0.9-0.4-0.9-0.9V86c0-0.5,0.4-0.9,0.9-0.9h2.1c0.5,0,0.9,0.4,0.9,0.9v0.1
						C340.3,86.6,339.8,87,339.3,87z"/>
					<rect x="335.2" y="85.9" class="st10" width="6.2" height="1.7"/>
					<rect x="344.2" y="85.8" class="st11" width="29.3" height="9.7"/>
					<text transform="matrix(1 0 0 1 344.2 94.3)" class="st4 st12 st13">12:51</text>
					<path class="st14" d="M356.9,149.9h-323c-3.5,0-6.3-2.8-6.3-6.3v-20.4c0-3.5,2.8-6.3,6.3-6.3h323c3.5,0,6.3,2.8,6.3,6.3v20.4
						C363.2,147.1,360.4,149.9,356.9,149.9z"/>
					<path class="st15" d="M342.8,133.4c0,3.4,3.1,4.7,6.1,4.7c2.8,0,6.1-1.1,6.1-4.7"/>
					<line class="st15" x1="348.9" y1="144.3" x2="348.9" y2="138.6"/>
					<path class="st4" d="M348.9,135.8L348.9,135.8c-2.1,0-3.8-1.7-3.8-3.8v-4.5c0-2.1,1.7-3.8,3.8-3.8l0,0c2.1,0,3.8,1.7,3.8,3.8
						v4.5C352.7,134.1,351,135.8,348.9,135.8z"/>
					<rect x="38" y="125.2" class="st11" width="57.3" height="16.5"/>
					<g>
						<text transform="matrix(1 0 0 1 37.98 137.95)" class="st4 st12 st16">G</text>
						<text transform="matrix(1 0 0 1 49.7 137.95)" class="st4 st12 st16">oogle</text>
					</g>
				</g>
			</g>
		</g>
		<path class="st17" d="M5.3,308.6c-3.9,0-4.8-1-4.8-4.5v-39.8c0-2.1,2.3-3,4.8-3V308.6z"/>
		<path class="st17" d="M5.3,439.8c-3.9,0-4.8-2.2-4.8-9.6V346c0-4.4,2.3-6.3,4.8-6.3V439.8z"/>
	</g>
</g>
</svg>
