<svg xmlns="http://www.w3.org/2000/svg" viewBox="0 0 392.8 537.8"><defs><style>.cls-1{fill:#383838;stroke:#010202;}.cls-1,.cls-15,.cls-18,.cls-3,.cls-4,.cls-6,.cls-7,.cls-8,.cls-9{stroke-miterlimit:10;}.cls-2{fill:#010202;}.cls-18,.cls-3{fill:#5f5f5e;stroke:#60605e;}.cls-12,.cls-15,.cls-4,.cls-6,.cls-7,.cls-9{fill:none;}.cls-4,.cls-7{stroke:#000;}.cls-13,.cls-17,.cls-5,.cls-8{fill:#fff;}.cls-6,.cls-9{stroke:#9599cc;}.cls-6{stroke-width:0.5px;}.cls-7{opacity:0.53;}.cls-13,.cls-14,.cls-16,.cls-17,.cls-7{isolation:isolate;}.cls-15,.cls-8{stroke:#fff;}.cls-9{stroke-width:0.75px;}.cls-10{fill:#fdfdfd;}.cls-11{fill:#cbcacc;}.cls-13{font-size:12px;}.cls-13,.cls-17{font-family:MyriadPro-Regular, Myriad Pro;}.cls-14{fill:#d3d3d3;opacity:0.51;}.cls-15{stroke-width:1.5px;}.cls-17{font-size:18px;}.cls-18{opacity:0;}</style></defs><title>Asset 4</title><g id="Layer_2" data-name="Layer 2"><g id="Layer_1-2" data-name="Layer 1"><g id="Layer_2-2" data-name="Layer 2"><g id="Layer_1-2-2" data-name="Layer 1-2"><g id="Smartphone"><path class="cls-1" d="M386.7,537.2c0-173.1-.1-459.4-.1-459.4s.1-27.4,0-38.9C386.4,21.5,373.1.5,336.7.5c-22.3,0-228,1.2-228,1.2S56.2.6,41.9,1.7c-12,.9-34.1,10.5-35.4,38C5.6,58,5.9,345.9,6.2,537.3H15V80.1H375.6V537.2Z"/><path class="cls-2" d="M130.2,30.1s-3.2,2.2-3.2,5,3.2,4.5,3.2,4.5H262a4.84,4.84,0,0,0,.2-9.4C259.3,30.1,130.2,30.1,130.2,30.1Z"/><circle class="cls-2" cx="80.6" cy="35.8" r="7.3"/><path class="cls-3" d="M387.5,262.3c2.5,0,4.8.9,4.8,3v39.8c0,3.5-.9,4.5-4.8,4.5Z"/><path class="cls-3" d="M387.5,340.7c2.5,0,4.8,1.9,4.8,6.3v84.2c0,7.4-.9,9.6-4.8,9.6Z"/><line class="cls-4" x1="375.7" y1="537.2" x2="15.1" y2="537.2"/></g><g id="Balk_boven" data-name="Balk boven"><path class="cls-5" d="M317.4,94.2l-5.8-6.4s1.6-2.4,5.8-2.4c4.4,0,5.8,2.5,5.8,2.5Z"/><path class="cls-6" d="M315.3,92.3a3.8,3.8,0,0,1,4.1,0"/><path class="cls-6" d="M314.2,90.7c1.7-1.5,5.2-1.5,6.5,0"/><path class="cls-6" d="M312.9,89.2a6.46,6.46,0,0,1,9.1,0"/><line class="cls-7" x1="15.8" y1="97.9" x2="375.1" y2="97.9"/><polygon class="cls-8" points="325 93.8 332.3 86.3 332.3 93.8 325 93.8"/><line class="cls-9" x1="330.7" y1="86.6" x2="330.7" y2="94.4"/><line class="cls-9" x1="328.8" y1="88.6" x2="328.8" y2="94.4"/><line class="cls-9" x1="326.9" y1="90.9" x2="326.9" y2="94.3"/><rect class="cls-10" x="335.2" y="85.9" width="6.2" height="8.5"/><path class="cls-11" d="M339.3,87h-2.1a.9.9,0,0,1-.9-.9V86a.9.9,0,0,1,.9-.9h2.1a.9.9,0,0,1,.9.9v.1C340.3,86.6,339.8,87,339.3,87Z"/><rect class="cls-11" x="335.2" y="85.9" width="6.2" height="1.7"/><rect class="cls-12" x="344.2" y="85.8" width="29.3" height="9.7"/><text class="cls-13" transform="translate(344.2 94.3)">12:51</text><path class="cls-14" d="M356.9,149.9H33.9a6.34,6.34,0,0,1-6.3-6.3V123.2a6.34,6.34,0,0,1,6.3-6.3h323a6.34,6.34,0,0,1,6.3,6.3v20.4A6.34,6.34,0,0,1,356.9,149.9Z"/><path class="cls-15" d="M342.8,133.4c0,3.4,3.1,4.7,6.1,4.7,2.8,0,6.1-1.1,6.1-4.7"/><line class="cls-15" x1="348.9" y1="144.3" x2="348.9" y2="138.6"/><path class="cls-5" d="M348.9,135.8h0a3.8,3.8,0,0,1-3.8-3.8v-4.5a3.8,3.8,0,0,1,3.8-3.8h0a3.8,3.8,0,0,1,3.8,3.8V132A3.8,3.8,0,0,1,348.9,135.8Z"/><rect class="cls-12" x="38" y="125.2" width="57.3" height="16.5"/><g class="cls-16"><text class="cls-17" transform="translate(37.98 137.95)">G</text><text class="cls-17" transform="translate(49.7 137.95)">oogle</text></g></g></g></g><path class="cls-18" d="M5.3,308.6c-3.9,0-4.8-1-4.8-4.5V264.3c0-2.1,2.3-3,4.8-3Z"/><path class="cls-18" d="M5.3,439.8c-3.9,0-4.8-2.2-4.8-9.6V346c0-4.4,2.3-6.3,4.8-6.3Z"/></g></g></svg>