<svg xmlns="http://www.w3.org/2000/svg" viewBox="0 0 387.22 793.19"><defs><style>.cls-1{fill:#383838;stroke:#000;}.cls-1,.cls-12,.cls-2,.cls-4,.cls-5,.cls-6,.cls-7{stroke-miterlimit:10;}.cls-2{fill:#5f5f5e;stroke:#60605e;}.cls-10,.cls-13,.cls-3,.cls-5,.cls-6{fill:#fff;}.cls-12,.cls-4,.cls-7{fill:none;}.cls-4,.cls-7{stroke:#9599cc;}.cls-4{stroke-width:0.5px;}.cls-5{stroke:#424242;opacity:0.4;}.cls-12,.cls-6{stroke:#fff;}.cls-7{stroke-width:0.75px;}.cls-8{fill:#fdfdfd;}.cls-9{fill:#cbcacc;}.cls-10{font-size:12px;}.cls-10,.cls-13{font-family:MyriadPro-Regular, Myriad Pro;}.cls-11{fill:#e7e6e8;opacity:0.5;}.cls-12{stroke-width:1.5px;}.cls-13{font-size:18px;}.cls-14{letter-spacing:0em;}</style></defs><title>smartphone</title><g id="Smartphone"><path class="cls-1" d="M1073,763c0-28.82-.11-586.9-.11-586.9s.14-27.36,0-38.95c-.21-17.39-13.52-38.42-49.88-38.42-22.28,0-228,1.16-228,1.16s-52.48-1.08-66.82,0c-12,.91-34.06,10.48-35.37,38s0,666.85,0,666.85-.42,48.14,2.78,58.62,11.37,24.52,35,25.83,281.67,1.74,281.67,1.74,51.62.35,60.09-34.07C1075,846.07,1073,791.82,1073,763Zm-11,58.59H701.38V178.45H1062Z" transform="translate(-691.8 -98.23)"/><path d="M816.43,128.41s-3.21,2.18-3.21,5,3.21,4.47,3.21,4.47H948.27a4.76,4.76,0,0,0,3.76-4.75,4.85,4.85,0,0,0-3.56-4.75Z" transform="translate(-691.8 -98.23)"/><circle cx="75.08" cy="35.85" r="7.35"/><path d="M815.51,858.6s-3.22,2.18-3.22,5,3.22,4.47,3.22,4.47H947.35a4.76,4.76,0,0,0,3.75-4.75,4.86,4.86,0,0,0-3.55-4.75Z" transform="translate(-691.8 -98.23)"/><path class="cls-2" d="M1073.75,360.57c2.5,0,4.77.91,4.77,3v39.78c0,3.49-.87,4.55-4.77,4.55Z" transform="translate(-691.8 -98.23)"/><path class="cls-2" d="M1073.75,439c2.5,0,4.77,1.92,4.77,6.25V529.5c0,7.38-.87,9.63-4.77,9.63Z" transform="translate(-691.8 -98.23)"/></g><g id="Balk_boven" data-name="Balk boven"><path class="cls-3" d="M1003.66,192.53l-5.75-6.44s1.59-2.38,5.81-2.38,5.78,2.46,5.78,2.46Z" transform="translate(-691.8 -98.23)"/><path class="cls-4" d="M1001.62,190.58a3.87,3.87,0,0,1,4.14,0" transform="translate(-691.8 -98.23)"/><path class="cls-4" d="M1000.44,189c1.65-1.5,5.17-1.45,6.45,0" transform="translate(-691.8 -98.23)"/><path class="cls-4" d="M999.18,187.52a6.47,6.47,0,0,1,9.08,0" transform="translate(-691.8 -98.23)"/><line class="cls-5" x1="10.33" y1="98.03" x2="369.55" y2="98.03"/><polygon class="cls-6" points="319.52 93.88 326.8 86.43 326.78 93.88 319.52 93.88"/><line class="cls-7" x1="325.22" y1="86.68" x2="325.22" y2="94.46"/><line class="cls-7" x1="323.29" y1="88.73" x2="323.29" y2="94.46"/><line class="cls-7" x1="321.36" y1="90.98" x2="321.36" y2="94.4"/><rect class="cls-8" x="329.66" y="85.98" width="6.21" height="8.54"/><rect class="cls-9" x="330.78" y="85.1" width="3.96" height="2" rx="0.95" ry="0.95"/><rect class="cls-9" x="329.66" y="85.98" width="6.21" height="1.69"/><text class="cls-10" transform="translate(338.68 94.39)">12:51</text><rect class="cls-11" x="22.14" y="117.04" width="335.52" height="32.92" rx="6.26" ry="6.26"/><path class="cls-12" d="M1029.09,231.72c0,3.41,3.08,4.75,6.11,4.75,2.76,0,6.11-1.09,6.11-4.75" transform="translate(-691.8 -98.23)"/><line class="cls-12" x1="343.4" y1="144.35" x2="343.4" y2="138.64"/><rect class="cls-3" x="339.6" y="123.72" width="7.6" height="12.15" rx="3.8" ry="3.8"/><text class="cls-13" transform="translate(32.46 138.04)"><tspan class="cls-14">G</tspan><tspan x="11.72" y="0">oogle</tspan></text></g></svg>