<svg xmlns="http://www.w3.org/2000/svg" viewBox="0 0 122.88 122.88"><defs><style>.cls-1{fill:#3f51b5;}.cls-2{fill:#fff;}</style></defs><title>surface1 (3)</title><g id="Layer_2" data-name="Layer 2"><g id="Layer_1-2" data-name="Layer 1"><g id="surface1"><path class="cls-1" d="M122.88,105.81a17.07,17.07,0,0,1-17.07,17.07H17.07A17.07,17.07,0,0,1,0,105.81V17.07A17.07,17.07,0,0,1,17.07,0h88.74a17.07,17.07,0,0,1,17.07,17.07Z"/><path class="cls-2" d="M96.83,64.85H85.33v44.38H68.27V64.85H58V51.2H68.27V43c0-12,5-19.08,19.09-19.08H99V37.55h-7.8c-5.5,0-5.86,2.05-5.86,5.88V51.2H99Z"/></g></g></g></svg>