<?xml version="1.0" encoding="utf-8"?>
<!-- Generator: Adobe Illustrator 22.0.0, SVG Export Plug-In . SVG Version: 6.00 Build 0)  -->
<svg version="1.1" id="Layer_1" xmlns="http://www.w3.org/2000/svg" xmlns:xlink="http://www.w3.org/1999/xlink" x="0px" y="0px"
	 viewBox="0 0 122.9 122.9" style="enable-background:new 0 0 122.9 122.9;" xml:space="preserve">
<style type="text/css">
	.st0{display:none;}
	.st1{display:inline;}
	.st2{fill:#FFCE07;}
	.st3{fill:#FFFFFF;}
	.st4{fill:#CFA705;}
	.st5{display:inline;fill:#0288D1;}
	.st6{display:inline;fill:#FFFFFF;}
	.st7{fill:#E0E0E0;}
	.st8{fill:#D9D9D9;}
	.st9{fill:#EEEEEE;}
	.st10{fill:#CA3737;}
	.st11{fill:#F5F5F5;}
	.st12{fill:#E84F4B;}
</style>
<g id="Layer_x0020_1" class="st0">
	<g id="_444246776" class="st1">
		<path class="st2" d="M13.3,0h96.4c7.3,0,13.3,5.9,13.3,13.3v96.4c0,7.3-5.9,13.3-13.3,13.3H13.3c-7.3,0-13.3-5.9-13.3-13.3V13.3
			C0,5.9,5.9,0,13.3,0z"/>
		<path class="st3" d="M56.2,20.5c-0.4,0-2,0.4-2.8,0.8c-4,1.2-6,3.2-7.2,3.6l-4.4,4.8c-0.4,0.4-0.8,1.2-1.2,1.6
			c0,0.4-0.4,0.8-0.8,1.6c0,0.4-0.4,0.8-0.4,1.2c-0.4,0.4-1.2,2.8-1.2,3.2c0,0.4,0,0.8-0.4,1.2V39v0.4c0,0.4-0.4,0.8-0.4,1.6
			c0,0,0,0.4,0,0.8l-0.4,0.4c0.4,0.8,0,4.4,0,5.2l0.4,2v2c0.8,2.4,1.2,4.4-2.4,3.2c-2.4-0.8-2.4-1.6-5.6-1.2
			c-0.4,0.4-1.2,0.4-1.2,0.8c-0.4,0.4-0.8,0.4-1.2,0.8c-0.8,1.2-0.4,2,0,3.2c0,0.4,0.8,1.2,0.8,1.6c1.2,0-0.8,0,2.4,0.4
			c2,0.4,5.6,1.6,6.4,3.6c0.4,0,0.8,1.6,0.8,2.8l-0.4,0.8l0,0c0,0.8-0.8,2.4-1.2,2.8c0,0.4-1.2,1.2-1.6,2c-0.4,0.4-0.4,0.4-0.8,0.8
			c-0.4,0.4-0.4,0.8-0.8,1.2c-0.4,0.8-3.2,3.6-4,4c0,0.4-2,1.6-2.8,2c-1.2,0.8-2,0.8-3.6,1.6c-1.6,0.4-6.4,1.6-4.4,4l0.4,0.4
			l2.4,1.2c3.2,1.2,6,1.6,9.2,2.4v2l0,0c0.4,1.6,0.8,2.8,2.4,3.6c1.6,0.4,3.2-0.4,4.8-0.8c1.6-0.8,3.2-0.8,4.8,0
			c0.4,0,3.2,1.6,3.6,2c0.4,0,4,2.4,4.8,2.8c2.8,1.6,7.6,3.6,11.2,3.6c0.8,0,2.4-0.4,3.2-0.4c0.8-0.4,2.4-0.8,3.2-0.8
			c0.4-0.4,1.2-0.8,2-0.8c0.4-0.4,1.2-0.8,2-1.2c1.2-0.4,5.2-3.2,5.6-3.2c0.4-0.4,1.6-0.8,2-1.2c6-3.6,7.6,0.8,11.2,0
			c2-0.8,2-2,2.4-3.6l0,0v-2c3.6-0.8,7.6-1.2,10.8-3.2h0.4l0.8-0.4l0.4-0.8c0.8-1.2-0.4-2-1.2-2.4c-0.8-0.4-2.4-1.2-3.6-1.2
			c-1.6-0.8-2.4-0.8-3.6-1.6c-0.8-0.4-2.4-1.6-2.8-2c-0.8-0.4-1.6-1.6-2-2c-0.4-0.4-1.6-1.6-2-2c-0.4-0.4-0.4-0.8-0.8-1.2
			s-0.4-0.4-0.8-0.8c-0.4-0.8-1.2-1.6-1.6-2c-0.4-0.4-1.2-2-1.2-2.8v-0.4c-0.4,0-0.4-0.4-0.4-0.4c0-0.8,0-1.6,0.4-2.4
			c0-0.4,0.4-0.4,0.4-0.4c1.2-2,4.4-3.2,6.4-3.6c1.2,0,1.2,0,2-0.4c0.4,0,0,0,0.4,0c0-0.4,0.8-1.2,1.2-1.6c0.4-1.2,0.4-2-0.4-3.2
			c-0.4-0.4-0.8-0.4-1.2-0.8c0-0.4-0.8-0.4-0.8-0.8c-3.6-0.4-3.2,0-6,1.2c-0.8,0-2.4,0.8-2.8,0c-0.4-0.4,0-2.8,0.4-2.8v-2.4l0.4-2
			c0-0.8,0-4.4,0-5.2l-0.4-0.4c0,0,0,0,0-0.4V41c0-0.8,0-1.2,0-1.6c-0.4-0.4-0.4-1.6-0.4-2c-0.4-0.4-0.8-2.4-1.2-3.2l-1.2-2
			c-0.4-0.4-0.4-0.4-0.4-0.8c-0.4-0.4-0.8-1.2-0.8-1.6c-0.4,0-1.2-0.8-1.2-1.2c-0.4-0.4-0.8-0.8-1.2-1.2l-2.4-2.4l0,0
			c-0.4,0-0.4,0-0.8-0.4c-1.2-0.8-2.4-1.6-4-2.4c-0.8-0.4-1.6-0.8-2.4-0.8c-0.8-0.4-2.4-0.8-2.8-0.8c-1.6-0.4-3.2-0.8-5.2-0.8
			C59.4,19.7,58.2,20.1,56.2,20.5z"/>
		<path class="st4" d="M100.8,81.9c14.5,4-6,7.6-7.6,8c0,2,0.4,4.8-2.4,5.6c-3.6,0.8-5.2-3.6-11.2,0c-0.4,0.4-1.6,0.8-2,1.2
			c-0.4,0-4.4,2.8-5.6,3.2l-4,2c-0.8,0-2.4,0.4-3.2,0.8c-9.2,2-17.3-5.6-19.3-6c-0.4-0.4-3.2-2-3.6-2c-5.6-2-11.6,5.6-12-4.8
			c-3.2-0.8-6-1.2-9.2-2.4l0,0c6.4,6.4,30.1,30.5,35.3,35.3h53.8l13.3-13.3V71.9c-6-6.8-28.5-28.9-40.6-40.6c0,0.4,0,0.4,0.4,0.8
			l2.4,5.2c0,0,1.6,8.4,0.4,14.5c-2,7.2,4.4,0,8.4,1.6c4.8,2.4,1.6,6,1.2,6.4l-2.4,0.4c-11.2,2.4-6,9.6-5.6,10
			c0.4,0.4,1.2,1.2,1.6,2C92.4,76.3,95.2,79.9,100.8,81.9z"/>
	</g>
</g>
<g id="surface1" class="st0">
	<path class="st5" d="M122.9,105.5c0,9.4-7.6,17-17,17H17.4c-9.4,0-17-7.6-17-17V17c0-9.4,7.6-17,17-17h88.5c9.4,0,17,7.6,17,17
		V105.5z"/>
	<path class="st6" d="M20.8,44.3h17v57.9h-17V44.3z"/>
	<path class="st6" d="M29.2,37.4L29.2,37.4c-5.2,0-8.5-3.8-8.5-8.5c0-4.8,3.4-8.5,8.6-8.5s8.4,3.7,8.5,8.5
		C37.8,33.7,34.5,37.4,29.2,37.4z"/>
	<path class="st6" d="M102.5,102.1h-17v-31c0-7.5-4.2-12.6-10.9-12.6c-5.1,0-7.9,3.4-9.2,6.8c-0.5,1.2-0.3,4.5-0.3,6.2v30.6H48V44.3
		h17v8.9c2.5-3.8,6.3-8.9,16.1-8.9c12.2,0,21.3,7.7,21.3,24.8V102.1z"/>
</g>
<g id="surface1_1_">
	<path class="st7" d="M9.2,108.4h103.9c5.4,0,9.8-4.6,9.8-10.3V21.4c0-5.7-4.4-10.3-9.8-10.3H9.2c-5.4,0-9.8,4.6-9.8,10.3v76.7
		C-0.7,103.8,3.7,108.4,9.2,108.4z"/>
	<path class="st8" d="M66.7,108.4h46.3c5.4,0,9.8-4.6,9.8-10.3V21.4c0-5.7-4.4-10.3-9.8-10.3H9.2c-5.4,0-9.8,4.6-9.8,10.3
		L66.7,108.4z"/>
	<path class="st9" d="M12.7,108.4h100.4c5.4,0,9.8-4.6,9.8-10.3V22.9L12.7,108.4z"/>
	<path class="st7" d="M66,108.4h47c5.4,0,9.8-4.6,9.8-10.3V22.9L46.4,82.2L66,108.4z"/>
	<path class="st10" d="M113.1,17H9.2c-5.4,0-9.8-1.3-9.8,4.4v76.7c0,5.7,4.4,10.3,9.8,10.3h4.2V24.4h95.5v84.1h4.2
		c5.4,0,9.8-4.6,9.8-10.3V21.4C122.9,15.7,118.5,17,113.1,17z"/>
	<path class="st11" d="M113.1,11.1H9.2c-5.4,0-9.8,4.5-9.8,10.3c0,3.6,4.3,6.7,4.3,6.7l57.5,42.8l57.5-42.8c0,0,4.3-3.1,4.3-6.7
		C122.9,15.6,118.5,11.1,113.1,11.1z"/>
	<path class="st12" d="M115.1,11.3l-54,39.6l-54-39.6c-4.4,1-7.7,5.1-7.7,10.1c0,3.6,4.3,6.7,4.3,6.7l57.5,42.8l57.5-42.8
		c0,0,4.3-3.1,4.3-6.7C122.9,16.4,119.6,12.3,115.1,11.3z"/>
</g>
</svg>
