<svg xmlns="http://www.w3.org/2000/svg" viewBox="0 0 120.16 120.16"><defs><style>.cls-1,.cls-2{fill:#304ffe;}.cls-2{fill-opacity:0.29;}.cls-3{fill:#6200ea;}.cls-4{fill:#673ab7;}.cls-5{fill:#8e24aa;}.cls-6{fill:#c2185b;}.cls-7{fill:#d81b60;}.cls-8{fill:#f50057;}.cls-9{fill:#ff1744;}.cls-10{fill:#ff5722;}.cls-11{fill:#ff6f00;}.cls-12{fill:#ff9800;}.cls-13{fill:#ffc107;}.cls-14{fill:#ffd54f;}.cls-15{fill:#ffe082;}.cls-16{fill:#ffecb3;}.cls-17{fill:none;stroke:#fff;stroke-miterlimit:10;stroke-width:2px;}.cls-18{fill:#fff;}</style></defs><title>surface1 (2)</title><g id="Layer_2" data-name="Layer 2"><g id="Layer_1-2" data-name="Layer 1"><g id="surface1"><path class="cls-1" d="M86.78,120.16H33.38A33.41,33.41,0,0,1,0,86.78V33.38A33.41,33.41,0,0,1,33.38,0h53.4a33.41,33.41,0,0,1,33.38,33.38v53.4A33.41,33.41,0,0,1,86.78,120.16Z"/><path class="cls-2" d="M0,33.38v53.4a33.41,33.41,0,0,0,33.38,33.38h53.4a33.41,33.41,0,0,0,33.38-33.38V33.38a33.25,33.25,0,0,0-1.33-9.25A110.06,110.06,0,0,0,14.45,5.92,33.35,33.35,0,0,0,0,33.38Z"/><path class="cls-3" d="M50.07,6.68A102.84,102.84,0,0,0,4,17.48a33.08,33.08,0,0,0-4,15.9v53.4a33.41,33.41,0,0,0,33.38,33.38h53.4a33.41,33.41,0,0,0,33.38-33.38V34.06A103.1,103.1,0,0,0,50.07,6.68Z"/><path class="cls-4" d="M120.16,43.43A96.74,96.74,0,0,0,.64,26.92,32.76,32.76,0,0,0,0,33.38v53.4a33.41,33.41,0,0,0,33.38,33.38h53.4a33.41,33.41,0,0,0,33.38-33.38Z"/><path class="cls-5" d="M120.16,53.52A90.1,90.1,0,0,0,0,35.22V86.78a33.41,33.41,0,0,0,33.38,33.38h53.4a33.41,33.41,0,0,0,33.38-33.38Z"/><path class="cls-6" d="M120.16,86.78V64.89A83.43,83.43,0,0,0,0,43.39V86.78a33.41,33.41,0,0,0,33.38,33.38h53.4A33.41,33.41,0,0,0,120.16,86.78Z"/><path class="cls-7" d="M120.16,86.78V78.84A76.75,76.75,0,0,0,0,52V86.78a33.41,33.41,0,0,0,33.38,33.38h53.4A33.41,33.41,0,0,0,120.16,86.78Z"/><path class="cls-8" d="M118.78,96.25A70.06,70.06,0,0,0,0,61.14V86.78a33.41,33.41,0,0,0,33.38,33.38h53.4A33.46,33.46,0,0,0,118.78,96.25Z"/><path class="cls-9" d="M113.31,106.94A63.3,63.3,0,0,0,0,71.32V86.78a33.41,33.41,0,0,0,33.38,33.38h53.4A33.28,33.28,0,0,0,113.31,106.94Z"/><path class="cls-10" d="M50.07,53.4A56.71,56.71,0,0,0,0,83.46v3.32a33.41,33.41,0,0,0,33.38,33.38h53.4a33.18,33.18,0,0,0,19.86-6.61c.06-1.14.17-2.26.17-3.4A56.74,56.74,0,0,0,50.07,53.4Z"/><path class="cls-11" d="M50.07,60.08A50,50,0,0,0,1.72,97.3a33.44,33.44,0,0,0,31.66,22.86h53.4a33.21,33.21,0,0,0,12.74-2.54A49.77,49.77,0,0,0,50.07,60.08Z"/><path class="cls-12" d="M50.07,66.76A43.33,43.33,0,0,0,6.85,106.94a33.28,33.28,0,0,0,26.53,13.22h53.4a33.22,33.22,0,0,0,5.6-.51A43.28,43.28,0,0,0,50.07,66.76Z"/><path class="cls-13" d="M85.36,120.16a36.7,36.7,0,1,0-72-10c0,1.14.07,2.28.17,3.4a33.16,33.16,0,0,0,19.86,6.61Z"/><path class="cls-14" d="M50.07,80.11a29.94,29.94,0,0,0-29,37.65,32.92,32.92,0,0,0,12.34,2.4h45a30,30,0,0,0-28.29-40Z"/><path class="cls-15" d="M50.07,87.07a23.34,23.34,0,0,0-21.4,32.72,34.67,34.67,0,0,0,4.71.37H71.29A23.33,23.33,0,0,0,50.07,87.07Z"/><path class="cls-16" d="M50.07,93.74a16.64,16.64,0,0,0-13.51,26.42h27a16.5,16.5,0,0,0,3.19-9.73A16.7,16.7,0,0,0,50.07,93.74Z"/><path class="cls-17" d="M40.05,103.47H80.11a23.36,23.36,0,0,0,23.36-23.36V40.05A23.36,23.36,0,0,0,80.11,16.69H40.05A23.36,23.36,0,0,0,16.69,40.05V80.11A23.36,23.36,0,0,0,40.05,103.47Z"/><path class="cls-17" d="M80.11,60.08a20,20,0,1,1-20-20A20,20,0,0,1,80.11,60.08Z"/><path class="cls-18" d="M86.78,33.38A3.34,3.34,0,1,1,83.44,30,3.35,3.35,0,0,1,86.78,33.38Z"/></g></g></g></svg>