<svg xmlns="http://www.w3.org/2000/svg" viewBox="0 0 123.55 123.56"><defs><style>.cls-1,.cls-2{fill:#304ffe;}.cls-2{fill-opacity:0.29;}.cls-3{fill:#6200ea;}.cls-4{fill:#673ab7;}.cls-5{fill:#8e24aa;}.cls-6{fill:#c2185b;}.cls-7{fill:#d81b60;}.cls-8{fill:#f50057;}.cls-9{fill:#ff1744;}.cls-10{fill:#ff5722;}.cls-11{fill:#ff6f00;}.cls-12{fill:#ff9800;}.cls-13{fill:#ffc107;}.cls-14{fill:#ffd54f;}.cls-15{fill:#ffe082;}.cls-16{fill:#ffecb3;}.cls-17{fill:none;stroke:#fff;stroke-miterlimit:10;stroke-width:2px;}.cls-18{fill:#fff;}</style></defs><title>Layer 2</title><g id="Layer_2" data-name="Layer 2"><g id="Layer_1-2" data-name="Layer 1"><g id="Layer_2-2" data-name="Layer 2"><g id="Layer_1-2-2" data-name="Layer 1-2"><g id="surface1"><path class="cls-1" d="M89.23,123.55H34.32A34.36,34.36,0,0,1,0,89.23V34.32A34.35,34.35,0,0,1,34.32,0H89.23a34.36,34.36,0,0,1,34.32,34.32V89.23A34.36,34.36,0,0,1,89.23,123.55Z"/><path class="cls-2" d="M0,34.32V89.23a34.36,34.36,0,0,0,34.32,34.32H89.23a34.36,34.36,0,0,0,34.32-34.32V34.32a34.38,34.38,0,0,0-1.37-9.51A113.18,113.18,0,0,0,14.86,6.09,34.28,34.28,0,0,0,0,34.32Z"/><path class="cls-3" d="M51.48,6.87A105.78,105.78,0,0,0,4.11,18,34.06,34.06,0,0,0,0,34.32V89.23a34.36,34.36,0,0,0,34.32,34.32H89.23a34.36,34.36,0,0,0,34.32-34.32V35A106,106,0,0,0,51.48,6.87Z"/><path class="cls-4" d="M123.55,44.66A99.47,99.47,0,0,0,.66,27.68,33.68,33.68,0,0,0,0,34.32V89.23a34.36,34.36,0,0,0,34.32,34.32H89.23a34.36,34.36,0,0,0,34.32-34.32Z"/><path class="cls-5" d="M123.55,55A92.65,92.65,0,0,0,0,36.21v53a34.36,34.36,0,0,0,34.32,34.32H89.23a34.36,34.36,0,0,0,34.32-34.32Z"/><path class="cls-6" d="M123.55,89.23V66.72A85.78,85.78,0,0,0,5,41.16c-1.7,1.09-3.35,2.25-5,3.45V89.23a34.36,34.36,0,0,0,34.32,34.32H89.23A34.36,34.36,0,0,0,123.55,89.23Z"/><path class="cls-7" d="M123.55,89.23V81.06A78.9,78.9,0,0,0,0,53.47V89.23a34.36,34.36,0,0,0,34.32,34.32H89.23A34.36,34.36,0,0,0,123.55,89.23Z"/><path class="cls-8" d="M122.13,99A72,72,0,0,0,0,62.86V89.23a34.36,34.36,0,0,0,34.32,34.32H89.23A34.41,34.41,0,0,0,122.13,99Z"/><path class="cls-9" d="M116.5,110A65.08,65.08,0,0,0,0,73.33v15.9a34.36,34.36,0,0,0,34.32,34.32H89.23A34.19,34.19,0,0,0,116.5,110Z"/><path class="cls-10" d="M51.48,54.91A58.31,58.31,0,0,0,0,85.81v3.42a34.36,34.36,0,0,0,34.32,34.32H89.23a34.18,34.18,0,0,0,20.42-6.8c.06-1.17.17-2.32.17-3.49A58.33,58.33,0,0,0,51.49,54.91Z"/><path class="cls-11" d="M51.48,61.77A51.41,51.41,0,0,0,1.77,100a34.38,34.38,0,0,0,32.55,23.51H89.23a34.2,34.2,0,0,0,13.09-2.61A51.17,51.17,0,0,0,59.77,62.4,52.24,52.24,0,0,0,51.48,61.77Z"/><path class="cls-12" d="M51.48,68.64A44.56,44.56,0,0,0,7,110a34.21,34.21,0,0,0,27.28,13.6H89.23A33.6,33.6,0,0,0,95,123a44.49,44.49,0,0,0-43.5-54.38Z"/><path class="cls-13" d="M87.77,123.55a37.74,37.74,0,1,0-74-10.28c0,1.17.07,2.34.17,3.49a34.11,34.11,0,0,0,20.42,6.8Z"/><path class="cls-14" d="M51.48,82.37a30.81,30.81,0,0,0-29.82,38.71,33.89,33.89,0,0,0,12.69,2.47H80.62A30.84,30.84,0,0,0,51.53,82.42Z"/><path class="cls-15" d="M51.48,89.53a24,24,0,0,0-22,33.64,37.29,37.29,0,0,0,4.84.38h39a24,24,0,0,0-21.82-34Z"/><path class="cls-16" d="M51.48,96.38a17.11,17.11,0,0,0-13.89,27.17H65.35a16.94,16.94,0,0,0,3.28-10A17.17,17.17,0,0,0,51.48,96.38Z"/><path class="cls-17" d="M41.18,106.39H82.37a24,24,0,0,0,24-24V41.18a24,24,0,0,0-24-24H41.18a24,24,0,0,0-24,24V82.37A24,24,0,0,0,41.18,106.39Z"/><path class="cls-17" d="M82.37,61.77A20.57,20.57,0,1,1,61.8,41.21,20.57,20.57,0,0,1,82.37,61.77Z"/><path class="cls-18" d="M89.23,34.32a3.44,3.44,0,1,1-3.44-3.47,3.43,3.43,0,0,1,3.44,3.47Z"/></g></g></g></g></g></svg>