<svg xmlns="http://www.w3.org/2000/svg" viewBox="0 0 122.55 122.55"><defs><style>.cls-1{fill:#0288d1;}.cls-2{fill:#fff;}</style></defs><title>surface1</title><g id="Layer_2" data-name="Layer 2"><g id="Layer_1-2" data-name="Layer 1"><g id="surface1"><path class="cls-1" d="M122.55,105.53a17,17,0,0,1-17,17H17a17,17,0,0,1-17-17V17A17,17,0,0,1,17,0h88.51a17,17,0,0,1,17,17Z"/><path class="cls-2" d="M20.42,44.25h17v57.87h-17Z"/><path class="cls-2" d="M28.88,37.44h-.09a8.15,8.15,0,0,1-8.37-8.51A8.2,8.2,0,0,1,29,20.42c5.17,0,8.36,3.67,8.45,8.51A8.19,8.19,0,0,1,28.88,37.44Z"/><path class="cls-2" d="M102.12,102.12h-17v-31c0-7.48-4.17-12.59-10.86-12.59-5.11,0-7.87,3.44-9.22,6.77-.49,1.2-.34,4.49-.34,6.16v30.63h-17V44.25h17v8.91c2.46-3.8,6.3-8.91,16.13-8.91,12.18,0,21.31,7.66,21.31,24.76Z"/></g></g></g></svg>