<svg xmlns="http://www.w3.org/2000/svg" viewBox="0 0 120.25 120.77"><defs><style>.cls-1{fill:#fff;}.cls-2{fill:#cfd8dc;}.cls-3{fill:#40c351;}</style></defs><title>surface1</title><g id="Layer_2" data-name="Layer 2"><g id="Layer_1-2" data-name="Layer 1"><g id="surface1"><path class="cls-1" d="M3,117.77,11.07,88.3a56.89,56.89,0,1,1,49.3,28.47h0a56.81,56.81,0,0,1-27.19-6.91Z"/><path class="cls-1" d="M3,119.27a1.55,1.55,0,0,1-1.07-.45,1.51,1.51,0,0,1-.37-1.45L9.46,88.5a58.39,58.39,0,1,1,23.51,23L3.38,119.21A1.76,1.76,0,0,1,3,119.27Z"/><path class="cls-2" d="M60.37,3a56.89,56.89,0,0,1,0,113.77h0a56.81,56.81,0,0,1-27.19-6.91L3,117.77,11.07,88.3A56.91,56.91,0,0,1,60.37,3m0-3A59.91,59.91,0,0,0,7.85,88.7L.1,117a3,3,0,0,0,2.9,3.8,2.85,2.85,0,0,0,.76-.11l29-7.61a59.89,59.89,0,0,0,87.47-53.14A59.89,59.89,0,0,0,60.37,0Z"/><path class="cls-3" d="M93.81,26.46A47.28,47.28,0,0,0,20.31,85l1.12,1.79-4.77,17.44,17.89-4.69,1.73,1a47.26,47.26,0,0,0,24.07,6.59h0A47.29,47.29,0,0,0,93.81,26.46Z"/><path class="cls-1" d="M46.15,36.1c-1.06-2.38-2.19-2.43-3.21-2.46-.83,0-1.78,0-2.72,0a5.17,5.17,0,0,0-3.78,1.78,15.86,15.86,0,0,0-5,11.86c0,7,5.1,13.75,5.8,14.7S47.1,77.69,61.54,83.39c12,4.73,14.46,3.8,17.05,3.56s8.42-3.44,9.6-6.76S89.37,74,89,73.43s-1.3-.94-2.72-1.66-8.41-4.14-9.72-4.62-2.25-.7-3.19.71-3.68,4.63-4.51,5.57-1.65,1.07-3.08.37a39.32,39.32,0,0,1-11.42-7.06,42.87,42.87,0,0,1-7.91-9.84c-.83-1.42-.1-2.19.62-2.91s1.42-1.66,2.14-2.49a10.32,10.32,0,0,0,1.41-2.36,2.66,2.66,0,0,0-.11-2.5C50.18,45.93,47.41,38.91,46.15,36.1Z"/></g></g></g></svg>